<svg width="1440" height="652" viewBox="0 0 1440 652" fill="none" xmlns="http://www.w3.org/2000/svg">
<g opacity="0.1">
<path d="M377.775 651.195L376.216 650.285C397.631 614.267 404.152 581.39 395.6 552.566C379.637 498.769 315.012 466.527 263.086 440.619C224.931 421.582 194.793 406.545 192.971 388.371C192.153 380.217 197.154 372.062 208.259 363.443C241.781 337.423 255.9 288.651 269.555 241.486C283.867 192.049 297.385 145.353 332.3 132.473C358.173 122.928 393.629 133.096 440.692 163.559C481.264 189.821 513.053 195.787 540.731 182.334C565.438 170.326 583.811 144.419 603.263 116.991C626.101 84.788 649.717 51.4893 686.11 36.8757C705.835 28.9554 727.251 27.2936 751.583 31.7944C778.627 36.7972 809.727 49.8516 844.02 70.5958C919.809 116.441 970.055 154.562 1006.74 182.396C1049.51 214.84 1073.07 232.711 1094.7 229.789C1119.9 226.386 1144.12 194.588 1192.36 131.238C1208.31 110.292 1224.17 94.3042 1239.49 83.7198C1253.21 74.2431 1266.97 68.7838 1280.39 67.4936C1314.75 64.1902 1341.37 87.8404 1362.76 106.844C1376.9 119.405 1389.11 130.255 1398.56 127.85C1404.35 126.378 1409.18 119.965 1413.33 108.244C1420.09 89.1367 1430.22 75.9446 1444.29 67.9135C1456.55 60.9086 1470.25 58.7395 1482.33 56.8249C1508.89 52.6157 1529.88 49.2908 1524.28 0.20117L1526.08 0C1528.73 23.211 1525.7 38.0501 1516.57 46.6992C1508.3 54.5249 1495.82 56.5018 1482.61 58.5953C1457.89 62.5126 1429.87 66.9528 1415.04 108.837C1410.67 121.167 1405.43 127.954 1399.01 129.587C1388.62 132.227 1376.68 121.615 1361.55 108.179C1340.43 89.41 1314.13 66.0524 1280.57 69.2783C1252.42 71.985 1224.04 92.6051 1193.8 132.318C1145.26 196.064 1120.9 228.061 1094.95 231.566C1093.33 231.785 1091.69 231.894 1090.05 231.894C1069.01 231.895 1045.66 214.181 1005.64 183.819C968.988 156.01 918.786 117.923 843.078 72.1263C778.663 33.161 727.541 22.1743 686.791 38.5378C650.892 52.9528 627.432 86.032 604.744 118.022C585.155 145.643 566.652 171.733 541.529 183.944C528.01 190.515 513.76 192.501 497.964 190.016C480.445 187.26 461.388 179.097 439.703 165.061C393.155 134.931 358.23 124.821 332.933 134.154C298.874 146.718 285.478 192.991 271.295 241.981C257.561 289.421 243.36 338.477 209.376 364.855C198.798 373.065 194.021 380.7 194.773 388.194C196.496 405.387 227.733 420.972 263.901 439.018C316.14 465.081 381.153 497.518 397.337 552.061C401.523 566.169 402.216 581.277 399.397 596.966C396.342 613.956 389.068 632.201 377.775 651.195Z" fill="#0E0E0E"/>
<path d="M354.279 650.406L352.701 649.527C382.233 597.427 383.919 553.752 357.854 516.007C335.375 483.454 296.674 461.038 262.53 441.261C246.532 431.995 231.422 423.243 220.355 414.634C207.924 404.964 201.774 396.394 201 387.667C200.167 378.278 205.659 368.75 217.788 358.539C250.521 330.983 266.012 288.021 280.994 246.475C289.041 224.159 296.642 203.08 306.534 185.825C317.718 166.316 330.176 154.61 345.739 148.985C358.592 144.339 373.277 144.004 390.634 147.959C409.318 152.216 430.538 161.302 455.506 175.735C494.858 198.483 526.228 202.634 554.229 188.798C579.207 176.455 598.325 151.457 618.566 124.991C642.253 94.0173 666.747 61.9895 703.089 47.0955C722.78 39.0259 743.92 36.7564 767.716 40.1573C794.163 43.9373 824.329 55.117 857.376 73.3865C944.093 121.326 996.936 164.421 1031.9 192.938C1065.32 220.197 1083.73 235.212 1102.89 233.068C1124.64 230.634 1147.37 205.563 1193.34 146.528C1209.04 126.366 1224.6 111.022 1239.58 100.92C1253.03 91.8546 1266.47 86.7055 1279.55 85.6172C1313.37 82.8 1339.65 106.863 1360.77 126.196C1375.24 139.45 1387.74 150.898 1397.93 148.758C1403.8 147.526 1408.88 141.824 1413.45 131.326C1421.3 113.293 1431.82 101.211 1445.61 94.3881C1457.62 88.4461 1470.47 87.2994 1481.81 86.2874C1493.97 85.2019 1504.48 84.2645 1511.91 78.1694C1520.12 71.4446 1523.58 58.9242 1522.81 38.7667L1524.62 38.6989C1525.41 59.4599 1521.74 72.4412 1513.07 79.5511C1505.2 86.0005 1493.92 87.0075 1481.97 88.0732C1458.7 90.1498 1432.33 92.5037 1415.11 132.037C1410.29 143.108 1404.79 149.151 1398.31 150.512C1387.2 152.841 1374.99 141.665 1359.54 127.513C1338.68 108.418 1312.73 84.6554 1279.7 87.4037C1252.33 89.6819 1224.55 109.38 1194.77 147.623C1172.68 175.996 1154.99 197.831 1140.46 212.174C1125.86 226.599 1114.33 233.592 1103.1 234.85C1093.65 235.908 1083.99 233.021 1071.76 225.494C1060.37 218.48 1047.3 207.82 1030.75 194.323C995.835 165.847 943.069 122.813 856.494 74.9525C794.433 40.6436 744.48 32.0731 703.78 48.7529C667.892 63.4608 643.549 95.2914 620.007 126.074C599.635 152.712 580.393 177.873 555.036 190.403C541.392 197.145 527.181 199.637 511.594 198.024C494.281 196.233 475.635 189.448 454.593 177.285C429.785 162.944 408.731 153.923 390.228 149.707C373.222 145.832 358.872 146.147 346.358 150.67C331.22 156.141 319.066 167.594 308.106 186.711C298.292 203.831 290.717 224.838 282.697 247.079C275.316 267.548 267.684 288.713 257.745 308.31C246.461 330.557 233.774 347.434 218.958 359.907C207.309 369.713 202.024 378.743 202.802 387.511C204.398 405.515 231.76 421.364 263.442 439.714C297.751 459.587 336.638 482.11 359.346 514.995C371.809 533.042 377.907 551.96 377.988 572.831C378.081 596.386 370.104 622.486 354.279 650.406Z" fill="#0E0E0E"/>
<path d="M330.776 649.616L329.18 648.771C357.145 596.949 360.692 553.588 340.022 516.211C322.186 483.956 289.675 461.632 260.992 441.935C233.64 423.154 210.018 406.934 208.69 387.489C207.955 376.741 214.047 365.667 227.312 353.637C258.74 325.133 276.095 286.444 291.407 252.31C300.306 232.473 308.711 213.736 319.023 198.485C330.625 181.327 343.107 170.848 358.304 165.508C371.457 160.885 386.443 160.236 404.119 163.521C423.126 167.054 444.776 175.032 470.307 187.912C508.433 207.145 539.38 209.484 567.7 195.273C592.945 182.606 612.804 158.526 633.829 133.033C658.368 103.279 683.742 72.5117 720.037 57.3269C739.696 49.1021 760.56 46.2214 783.823 48.5204C810.041 51.1116 838.466 60.158 870.721 76.1762C965.26 123.125 1016.74 169.771 1050.8 200.637C1077.13 224.495 1093.03 238.896 1110.57 237.488C1120.54 236.689 1130.9 230.907 1144.15 218.739C1156.66 207.262 1171.66 190.239 1194.32 161.818C1209.76 142.444 1225.02 127.743 1239.65 118.121C1252.82 109.465 1265.95 104.623 1278.68 103.729C1311.96 101.398 1337.88 125.849 1358.72 145.498C1373.54 159.477 1386.33 171.55 1397.33 169.758C1403.29 168.785 1408.61 163.763 1413.57 154.405C1433.81 116.244 1460.16 116.068 1481.33 115.926C1492.18 115.853 1501.54 115.791 1508.57 111C1516.3 105.727 1520.36 95.0231 1521.34 77.3158L1523.15 77.4137C1522.14 95.7212 1517.83 106.863 1509.6 112.477C1502.11 117.58 1492.02 117.648 1481.34 117.719C1459.58 117.865 1434.91 118.03 1415.17 155.238C1409.93 165.129 1404.19 170.456 1397.62 171.527C1396.79 171.662 1395.96 171.728 1395.11 171.728C1383.9 171.729 1371.58 160.107 1357.47 146.796C1336.89 127.389 1311.28 103.239 1278.81 105.517C1252.22 107.384 1225.05 126.163 1195.74 162.929C1173.02 191.426 1157.96 208.51 1145.38 220.054C1131.81 232.513 1121.12 238.44 1110.72 239.274C1109.87 239.342 1109.03 239.376 1108.19 239.376C1090.87 239.376 1075.04 225.03 1049.58 201.96C1015.59 171.161 964.224 124.616 869.91 77.7784C810.187 48.1195 761.394 41.9703 720.741 58.9775C684.859 73.9891 659.629 104.582 635.229 134.167C614.08 159.81 594.103 184.032 568.517 196.871C554.751 203.779 540.584 206.774 525.208 206.029C508.106 205.2 489.879 199.796 469.485 189.508C421.393 165.247 385.224 157.948 358.909 167.196C326.45 178.602 310.977 213.096 293.06 253.036C277.676 287.331 260.239 326.201 228.533 354.957C215.7 366.596 209.8 377.198 210.494 387.366C211.764 405.949 235.054 421.942 262.022 440.46C290.87 460.269 323.567 482.722 341.609 515.347C362.595 553.299 359.051 597.218 330.776 649.616Z" fill="#202020"/>
<path d="M307.282 648.824L305.669 648.011C365.146 532.061 306.042 482.504 258.551 442.685C236.084 423.847 216.68 407.578 215.951 387.853C215.498 375.628 222.335 362.831 236.85 348.729C266.066 320.345 284.072 288.044 299.96 259.546C317.959 227.26 333.504 199.376 360.011 186.021C374.045 178.951 390.276 176.412 409.632 178.259C430.661 180.265 455.351 187.405 485.111 200.085C565.957 234.531 606.32 189.16 649.053 141.124C674.448 112.577 700.708 83.0586 736.961 67.5711C756.591 59.1853 777.182 55.6882 799.916 56.8838C825.538 58.23 853.066 65.4525 884.072 78.9641C983.66 122.361 1032.76 173.094 1065.25 206.666C1086.86 228.984 1101.12 243.727 1117.75 243.037C1135.62 242.293 1156.64 224.425 1195.31 177.107C1210.49 158.524 1225.43 144.465 1239.72 135.321C1252.6 127.073 1265.41 122.533 1277.8 121.828C1292.39 120.997 1306.75 125.309 1321.7 135.011C1334.66 143.421 1346.33 154.75 1356.62 164.745C1371.79 179.477 1384.9 192.202 1396.75 190.85C1402.83 190.158 1408.38 185.784 1413.71 177.481C1436.7 141.673 1461.18 143.963 1480.84 145.8C1490.4 146.694 1498.66 147.466 1505.3 143.933C1512.61 140.048 1517.24 131.124 1519.89 115.845L1521.68 116.149C1518.92 132.016 1513.99 141.346 1506.16 145.513C1499.04 149.302 1490.53 148.507 1480.67 147.585C1461.5 145.792 1437.63 143.561 1415.24 178.444C1409.6 187.232 1403.62 191.873 1396.96 192.631C1396.31 192.705 1395.65 192.742 1395 192.742C1382.87 192.743 1370.06 180.308 1355.36 166.025C1335.07 146.322 1309.82 121.8 1277.9 123.618C1252.1 125.088 1225.54 142.953 1196.71 178.236C1157.67 226.012 1136.29 244.061 1117.83 244.829C1117.43 244.846 1117.02 244.854 1116.62 244.854C1099.71 244.855 1085.38 230.051 1063.95 207.907C1031.55 174.438 982.602 123.86 883.343 80.6062C755.042 24.6957 701.849 84.4869 650.41 142.31C617.831 178.932 586.606 214.022 537.999 214.026C522.184 214.027 504.538 210.315 484.395 201.733C428.367 177.86 389.103 173.376 360.83 187.621C334.818 200.726 319.398 228.387 301.543 260.414C285.596 289.02 267.521 321.443 238.116 350.011C223.985 363.739 217.326 376.096 217.758 387.789C218.459 406.722 237.58 422.754 259.72 441.318C283.249 461.046 309.917 483.406 323.5 515.765C339.258 553.304 333.954 596.829 307.282 648.824Z" fill="#303030"/>
<path d="M283.779 648.032L282.149 647.253C338.121 532.269 292.158 483.101 255.226 443.594C226.318 412.67 203.484 388.244 246.38 343.822C271.625 317.679 289.171 292.147 304.651 269.62C326.276 238.152 343.356 213.297 371.115 201.346C400.804 188.564 440.521 191.931 499.896 212.26C578.043 239.017 619.891 195.426 664.196 149.276C690.455 121.924 717.608 93.6406 753.829 77.8372C773.435 69.2832 793.76 65.1708 815.969 65.2532C841.001 65.3508 867.639 70.7477 897.406 81.752C999.683 119.563 1045.94 175.002 1076.55 211.688C1095.61 234.543 1108.21 249.643 1124.45 249.662C1124.46 249.662 1124.47 249.662 1124.48 249.662C1141.38 249.662 1162.18 233.067 1196.29 192.395C1211.21 174.604 1225.83 161.187 1239.76 152.517C1252.36 144.675 1264.85 140.434 1276.89 139.91C1291.24 139.284 1305.34 143.774 1319.99 153.63C1332.72 162.192 1344.27 173.74 1354.47 183.928C1369.98 199.435 1383.38 212.829 1396.16 212.029C1402.38 211.64 1408.17 207.887 1413.85 200.555C1439.75 167.156 1462.2 172.039 1480.23 175.96C1488.57 177.773 1495.77 179.339 1502.08 177.014C1509.02 174.456 1514.23 167.255 1518.45 154.35L1520.17 154.903C1515.76 168.371 1510.21 175.931 1502.71 178.694C1495.9 181.203 1488.1 179.507 1479.85 177.711C1462.31 173.898 1440.48 169.151 1415.29 201.647C1409.26 209.414 1403.04 213.395 1396.27 213.818C1395.87 213.843 1395.46 213.856 1395.06 213.856C1381.86 213.857 1368.54 200.539 1353.18 185.189C1332.15 164.166 1308.3 140.34 1276.97 141.701C1251.95 142.789 1226.02 159.746 1197.68 193.541C1163.19 234.67 1141.98 251.454 1124.49 251.455C1124.47 251.455 1124.46 251.455 1124.45 251.455C1116.51 251.445 1108.87 247.988 1100.4 240.577C1092.64 233.793 1084.54 224.078 1075.15 212.829C1044.67 176.291 998.597 121.074 896.773 83.4309C773.616 37.9015 718.657 95.1492 665.507 150.511C630.293 187.192 596.609 222.27 545.188 222.273C531.31 222.274 516.147 219.72 499.305 213.954C440.391 193.782 401.079 190.401 371.836 202.989C344.558 214.733 327.607 239.4 306.147 270.629C290.627 293.213 273.036 318.81 247.688 345.061C228.459 364.973 221.444 381.891 225.611 398.302C229.436 413.366 242.003 426.809 256.554 442.375C274.9 462 295.694 484.244 305.011 516.313C315.796 553.44 308.851 596.525 283.779 648.032Z" fill="#404040"/>
<path d="M260.282 647.241L258.636 646.495C311.062 532.796 277.775 484.008 251.029 444.806C239.84 428.405 230.177 414.242 228.664 397.846C227.007 379.898 235.668 361.172 255.919 338.915C273.332 319.777 287.487 302.434 299.975 287.133C327.802 253.04 347.907 228.406 377.682 217.058C393.087 211.187 410.362 208.97 432.046 210.082C453.872 211.202 480.901 215.898 514.678 224.439C590.082 243.505 633.39 201.735 679.239 157.511C706.375 131.337 734.434 104.272 770.639 88.1354C790.229 79.4047 810.296 74.6618 831.988 73.6359C856.439 72.4776 882.198 76.0467 910.738 84.5419C956.26 98.0923 993.948 118.377 1025.96 146.555C1053.17 170.517 1071.16 195.765 1085.61 216.052C1102.36 239.561 1114.46 256.546 1130.73 257.288C1138.63 257.651 1147.49 254.136 1157.84 246.552C1168.69 238.601 1181.59 225.887 1197.27 207.685C1225.46 174.976 1251.2 158.716 1275.98 157.978C1307.52 157.044 1331.29 181.481 1352.26 203.046C1368.04 219.27 1381.67 233.292 1395.35 233.292C1395.41 233.292 1395.47 233.292 1395.53 233.291C1401.92 233.234 1407.96 230.074 1414 223.632C1442.92 192.791 1463.13 200.347 1479.37 206.418C1486.59 209.118 1492.82 211.449 1498.88 210.293C1505.56 209.019 1511.34 203.472 1517.05 192.838L1518.65 193.681C1505.52 218.113 1493.1 213.47 1478.73 208.096C1462.18 201.907 1443.42 194.894 1415.33 224.852C1408.93 231.675 1402.46 235.022 1395.55 235.084C1395.48 235.084 1395.41 235.085 1395.35 235.085C1380.9 235.085 1367.02 220.809 1350.96 204.29C1330.25 182.993 1306.78 158.854 1276.03 159.77C1251.79 160.493 1226.48 176.546 1198.65 208.849C1168.4 243.952 1148.3 259.105 1131.85 259.106C1131.44 259.106 1131.04 259.097 1130.64 259.078C1113.49 258.296 1101.18 241.01 1084.13 217.086C1055.67 177.132 1012.66 116.752 910.217 86.2589C792.142 51.112 735.387 105.855 680.501 158.795C642.197 195.741 605.649 230.989 550.783 230.991C539.44 230.991 527.318 229.485 514.231 226.176C447.862 209.394 408.49 207.237 378.331 218.732C349.009 229.907 329.032 254.384 301.382 288.26C288.88 303.579 274.709 320.942 257.263 340.116C237.374 361.976 228.859 380.268 230.466 397.682C231.936 413.62 241.479 427.606 252.529 443.802C265.829 463.296 280.903 485.39 286.139 517.125C292.192 553.816 283.734 596.378 260.282 647.241Z" fill="#505050"/>
<path d="M236.778 646.449L235.117 645.738C283.848 533.939 262.789 485.52 245.868 446.615C238.409 429.466 231.967 414.655 233.039 397.329C234.206 378.471 244.506 358.35 265.453 334.007L267.257 331.91C314.42 277.099 340.4 246.906 374.361 233.695C407.901 220.648 449.31 224.054 529.443 236.622C602.048 248.008 646.766 208.104 694.11 165.856C722.144 140.839 751.133 114.97 787.347 98.4793C806.933 89.561 826.754 84.1827 847.945 82.0373C871.829 79.6196 896.726 81.3513 924.054 87.333C969.281 97.2314 1006.12 116.129 1036.68 145.105C1062.73 169.809 1079.56 197.594 1093.09 219.921C1108.71 245.704 1120 264.332 1136.6 265.818C1151.77 267.173 1170.78 253.961 1198.25 222.973C1225.93 191.762 1251.04 176.406 1275.04 176.026C1306 175.549 1329.36 200.269 1349.99 222.091C1361.26 234.004 1371.89 245.256 1382.4 250.867C1393.86 256.993 1403.95 255.672 1414.16 246.712C1428.3 234.296 1440.84 228.257 1452.46 228.257C1452.5 228.257 1452.53 228.257 1452.57 228.257C1462.79 228.288 1470.9 232.96 1478.07 237.082C1490.42 244.188 1500.17 249.802 1515.68 231.318L1517.07 232.465C1509.57 241.408 1502.75 245.575 1495.63 245.575C1495.62 245.575 1495.61 245.575 1495.61 245.575C1489.21 245.568 1483.35 242.199 1477.16 238.632C1462.7 230.312 1446.31 220.883 1415.36 248.054C1409.65 253.062 1404.02 255.768 1398.12 256.328C1392.8 256.834 1387.37 255.564 1381.54 252.445C1370.77 246.695 1360.04 235.339 1348.67 223.316C1328.5 201.974 1305.65 177.812 1275.94 177.812C1275.65 177.812 1275.36 177.814 1275.07 177.818C1251.61 178.19 1226.93 193.346 1199.61 224.156C1171.72 255.617 1152.23 269.015 1136.44 267.603C1128.33 266.878 1120.93 262.282 1113.14 253.142C1106.11 244.892 1099.36 233.748 1091.54 220.843C1063.53 174.613 1025.17 111.299 923.664 89.0833C810.58 64.3325 751.986 116.621 695.321 167.187C653.277 204.706 613.283 240.389 554.041 240.392C546.107 240.392 537.836 239.753 529.16 238.392C449.363 225.877 408.17 222.469 375.022 235.363C341.483 248.41 315.608 278.482 268.635 333.073L266.83 335.17C222.017 387.247 232.718 411.851 247.53 445.905C255.933 465.225 265.457 487.123 266.805 518.44C268.363 554.647 258.542 596.518 236.778 646.449Z" fill="#606060"/>
<path d="M213.281 645.657L211.605 644.98C256.252 536.384 246.951 488.343 239.478 449.742C232.468 413.536 227.404 387.377 274.996 329.097C315.116 279.967 341.539 256.815 369.238 246.523C397.377 236.068 427.318 238.899 472.641 243.185C493.114 245.121 516.319 247.315 544.205 248.81C613.909 252.547 659.964 214.572 708.719 174.367C737.689 150.477 767.645 125.773 803.91 108.897C823.514 99.7749 843.111 93.7483 863.823 90.4728C887.165 86.7814 911.222 86.6681 937.368 90.1264C981.78 96.0014 1017.43 113.286 1046.37 142.969C1071.11 168.352 1086.82 198.849 1099.44 223.354C1113.7 251.034 1124.95 272.899 1142.13 275.158C1156.38 277.03 1174.53 265.308 1199.24 238.26C1226.39 208.548 1250.88 194.087 1274.1 194.053C1274.12 194.053 1274.15 194.053 1274.18 194.053C1304.47 194.053 1327.42 219.021 1347.68 241.054C1370.42 265.798 1390.07 287.169 1414.33 269.795C1449.1 244.893 1463.53 257.037 1476.26 267.752C1486.67 276.512 1495.66 284.079 1514.36 269.811L1515.47 271.233C1507.52 277.297 1501.15 279.591 1495.7 279.591C1487.53 279.591 1481.41 274.444 1475.09 269.119C1468.83 263.848 1462.35 258.397 1453.26 257.215C1442.86 255.862 1430.47 260.452 1415.39 271.248C1409.22 275.666 1403.19 277.846 1396.96 277.916C1391.35 277.981 1385.7 276.319 1379.67 272.839C1368.55 266.418 1357.76 254.684 1346.34 242.262C1326.34 220.504 1303.66 195.845 1274.18 195.845C1274.15 195.845 1274.13 195.845 1274.1 195.845C1251.42 195.879 1227.37 210.146 1200.58 239.463C1187.58 253.691 1176.52 263.576 1166.78 269.684C1157.44 275.537 1149.3 277.91 1141.89 276.935C1123.77 274.551 1112.32 252.318 1097.83 224.168C1071.94 173.896 1036.48 105.046 937.128 91.9029C828.905 77.587 768.394 127.487 709.876 175.744C663.098 214.32 618.785 250.855 553.67 250.858C550.528 250.858 547.348 250.774 544.107 250.6C516.185 249.103 492.96 246.907 472.469 244.969C427.397 240.706 397.62 237.891 369.874 248.201C342.506 258.37 316.299 281.366 276.402 330.224C229.339 387.857 234.337 413.672 241.255 449.403C244.949 468.482 249.135 490.107 246.826 520.841C244.152 556.429 233.18 597.256 213.281 645.657Z" fill="#707070"/>
<path d="M189.78 644.865L188.09 644.223C227.58 542.135 229.48 492.585 230.867 456.406C231.661 435.722 232.287 419.385 239.138 399.614C246.496 378.377 260.497 355.115 284.536 324.188C315.79 283.977 341.389 262.209 367.541 253.607C392.319 245.456 416.632 249.181 447.414 253.898C476.03 258.282 511.642 263.739 558.954 261.01C625.6 257.167 672.836 221.218 722.845 183.159C752.82 160.347 783.814 136.758 820.205 119.45C839.867 110.097 859.28 103.399 879.552 98.974C902.395 93.9869 925.657 92.0103 950.666 92.9269C993.859 94.5123 1028.08 110.006 1055.29 140.294C1078.64 166.276 1092.62 198.196 1104.96 226.359C1118.61 257.529 1129.4 282.15 1147.33 285.218C1160.85 287.534 1177.66 277.47 1200.23 253.547C1226.85 225.333 1250.7 211.748 1273.14 212.058C1286.45 212.233 1299.42 217.339 1312.8 227.668C1324.54 236.727 1335.1 248.525 1345.3 259.935C1356.69 272.674 1367.45 284.705 1378.72 291.675C1391.19 299.384 1402.56 299.77 1414.5 292.888C1431.12 283.312 1444.08 279.957 1454.12 282.629C1463.08 285.015 1468.63 291.712 1474 298.188C1478.44 303.547 1482.63 308.609 1488.51 311.107C1495.14 313.922 1502.94 313.045 1513.06 308.343L1513.83 309.966C1506.98 313.149 1501.35 314.463 1496.61 314.464C1485.14 314.465 1478.8 306.805 1472.6 299.326C1467.41 293.068 1462.05 286.598 1453.65 284.361C1444.1 281.819 1431.59 285.116 1415.41 294.438C1409.26 297.98 1403.42 299.537 1397.8 299.538C1378.29 299.54 1361.5 280.755 1343.95 261.125C1323.33 238.071 1302.01 214.233 1273.12 213.851C1272.88 213.848 1272.65 213.847 1272.42 213.847C1250.71 213.847 1227.52 227.241 1201.55 254.772C1180.72 276.85 1164.55 287.332 1151.16 287.333C1149.75 287.333 1148.37 287.217 1147.02 286.986C1128.13 283.752 1117.17 258.74 1103.3 227.074C1079.48 172.708 1046.86 98.2521 950.599 94.7196C847.021 90.9173 784.453 138.534 723.947 184.582C673.711 222.814 626.261 258.925 559.059 262.801C550.205 263.312 541.753 263.537 533.687 263.537C498.478 263.538 470.489 259.248 447.138 255.67C385.45 246.218 351.47 241.012 285.97 325.282C235.202 390.597 234.251 415.394 232.676 456.474C231.283 492.778 229.376 542.499 189.78 644.865Z" fill="#808080"/>
<path d="M166.281 644.073L164.578 643.466C194.96 559.759 206.651 512.109 215.188 477.317C221.885 450.027 226.723 430.309 237.27 407.795C248.048 384.789 264.507 359.143 294.08 319.277C353.957 238.56 392.369 248.92 445.535 263.26C479.848 272.515 518.74 283.004 573.7 273.223C636.95 261.964 685.068 228.219 736.011 192.493C798.984 148.33 864.102 102.663 963.957 95.7369C1005.62 92.8452 1038.23 106.403 1063.65 137.18C1085.53 163.665 1098.46 198.327 1109.88 228.908C1122.51 262.759 1133.42 291.994 1152.23 295.913C1164.85 298.542 1180.87 289.683 1201.22 268.834C1226.69 242.732 1249.43 230.017 1270.67 230.017C1271.18 230.017 1271.68 230.024 1272.18 230.038C1301.23 230.861 1322.4 255.194 1342.87 278.726C1365.27 304.477 1386.43 328.8 1414.68 315.988C1432.55 307.883 1445.21 305.898 1454.53 309.741C1462.81 313.158 1467.22 320.814 1471.48 328.218C1475.04 334.397 1478.71 340.786 1484.63 344.676C1491.26 349.036 1500.13 349.768 1511.77 346.916L1512.2 348.657C1507.2 349.884 1502.85 350.434 1499.05 350.435C1482.18 350.435 1475.96 339.625 1469.91 329.107C1461.41 314.345 1453.39 300.403 1415.43 317.619C1409.74 320.199 1404.34 321.358 1399.18 321.358C1377.57 321.361 1359.95 301.104 1341.5 279.897C1321.28 256.66 1300.38 232.632 1272.12 231.831C1250.98 231.227 1228.22 243.743 1202.52 270.081C1191.71 281.157 1182.31 288.743 1173.78 293.275C1165.63 297.605 1158.46 299.043 1151.86 297.668C1142.74 295.767 1134.95 288.542 1127.36 274.928C1120.6 262.811 1114.57 246.645 1108.18 229.53C1085.16 167.863 1056.52 91.1114 964.083 97.5256C864.733 104.416 799.826 149.936 737.056 193.957C685.944 229.802 637.666 263.659 574.019 274.988C549.349 279.379 525.598 280.067 501.408 277.093C480.307 274.498 461.581 269.447 445.059 264.991C418.758 257.896 396.043 251.77 372.71 257.395C347.387 263.5 322.865 283.501 295.538 320.339C235.812 400.853 230.675 421.788 216.946 477.741C208.4 512.572 196.695 560.276 166.281 644.073Z" fill="#8F8F8F"/>
<path d="M142.779 643.28L141.064 642.709C206.854 448.931 206.854 448.931 273.371 356.598C282.181 344.37 292.165 330.511 303.624 314.365C329.561 277.819 353.809 259.084 379.935 255.408C403.61 252.076 426.931 261.45 451.621 271.374C488.757 286.3 530.846 303.217 588.442 285.449C647.468 267.239 695.699 236.11 746.761 203.153C812.639 160.635 880.76 116.668 977.237 98.5582C1017.12 91.0721 1047.98 102.566 1071.58 133.698C1091.95 160.57 1103.85 197.961 1114.34 230.951C1126.53 269.263 1137.06 302.35 1156.85 307.163C1168.76 310.056 1183.59 302.519 1202.2 284.121C1227.73 258.89 1250.31 247.078 1271.21 247.991C1299.61 249.241 1320.34 273.734 1340.38 297.42C1363.08 324.243 1384.53 349.575 1414.85 339.097C1433.6 332.618 1446.31 331.865 1454.83 336.728C1462.47 341.089 1465.61 349.215 1468.93 357.819C1474.63 372.574 1480.53 387.832 1510.45 385.524L1510.59 387.311C1508.53 387.47 1506.58 387.546 1504.73 387.546C1478.48 387.548 1472.53 372.151 1467.24 358.46C1460.73 341.624 1455.12 327.083 1415.45 340.79C1401.26 345.692 1387.65 343.397 1373.82 333.773C1361.56 325.238 1350.6 312.286 1339 298.572C1319.2 275.183 1298.73 250.997 1271.13 249.782C1250.75 248.883 1228.63 260.533 1203.48 285.39C1187.09 301.591 1173.43 309.553 1161.94 309.554C1160.04 309.554 1158.21 309.337 1156.42 308.904C1135.64 303.851 1124.97 270.318 1112.62 231.49C1102.17 198.638 1090.32 161.402 1070.13 134.774C1046.99 104.243 1016.71 92.9719 977.574 100.32C881.448 118.364 813.479 162.232 747.749 204.656C696.579 237.682 648.246 268.877 588.98 287.16C571.165 292.657 554.828 294.874 539.663 294.874C505.275 294.875 476.907 283.472 450.941 273.036C400.614 252.808 360.862 236.83 305.104 315.397C293.642 331.548 283.655 345.41 274.844 357.64C208.483 449.756 208.483 449.756 142.779 643.28Z" fill="#9F9F9F"/>
<path d="M119.283 642.489L117.557 641.953C140.075 570.801 159.011 522.988 178.957 486.921C197.479 453.43 215.193 432.851 237.62 406.797C258.463 382.583 282.087 355.14 313.174 309.454C338.176 272.713 362.278 255.114 389.026 254.072C412.987 253.138 436.378 265.625 461.142 278.846C500.587 299.906 545.295 323.775 603.194 297.689C654.727 274.47 700.008 247.547 747.947 219.042C819.496 176.5 893.48 132.509 990.519 101.395C1002.64 97.5069 1014.04 95.8136 1024.38 96.3605C1034.09 96.8743 1043.18 99.3795 1051.4 103.807C1089.12 124.111 1104.72 181.655 1118.49 232.425C1130.23 275.738 1140.37 313.146 1161.23 318.9C1172.43 321.993 1186.16 315.617 1203.2 299.407C1228.16 275.659 1250.09 264.707 1270.24 265.917C1297.98 267.587 1318.25 292.207 1337.85 316.016C1348.93 329.478 1360.39 343.399 1372.86 352.542C1386.88 362.822 1400.28 365.895 1415.03 362.215C1433.35 357.643 1445.58 357.734 1453.5 362.502C1461.85 367.533 1464.12 377.023 1466.52 387.071C1470.64 404.365 1474.91 422.248 1509.11 424.156L1509.01 425.946C1473.46 423.963 1468.84 404.582 1464.76 387.483C1462.45 377.811 1460.27 368.676 1452.56 364.035C1445.18 359.595 1433.05 359.568 1415.47 363.954C1400.37 367.724 1386.08 364.462 1371.79 353.984C1359.14 344.707 1347.6 330.698 1336.45 317.15C1317.09 293.64 1297.08 269.33 1270.13 267.707C1250.5 266.526 1229.03 277.319 1204.45 300.701C1189.84 314.604 1177.47 321.448 1166.89 321.449C1164.77 321.449 1162.72 321.175 1160.74 320.628C1138.89 314.599 1128.63 276.734 1116.74 232.89C1103.07 182.469 1087.57 125.319 1050.54 105.383C1033.82 96.3798 1014.37 95.6332 991.075 103.101C894.233 134.152 820.339 178.09 748.878 220.58C700.893 249.112 655.569 276.061 603.942 299.322C586.691 307.094 569.628 310.958 552.344 310.959C543.345 310.959 534.289 309.912 525.107 307.824C501.575 302.471 480.583 291.264 460.283 280.426C435.743 267.324 412.566 254.947 389.096 255.864C362.973 256.883 339.325 274.23 314.674 310.458C283.529 356.227 259.87 383.712 238.996 407.961C195.677 458.285 167.059 491.531 119.283 642.489Z" fill="#AFAFAF"/>
<path d="M95.7785 641.696L94.041 641.195C112.838 577.23 132.624 530.608 156.308 494.472C177.687 461.855 200.35 440.721 224.344 418.346C253.128 391.504 285.753 361.08 322.716 304.54C342.441 274.371 362.352 257.586 383.59 253.229C413.453 247.103 442.088 266.004 472.407 286.015C515.94 314.748 560.956 344.458 617.945 309.939C744.271 233.42 856.059 173.827 1003.79 104.245C1014.95 98.9892 1025.42 96.0347 1034.91 95.4638C1043.87 94.9259 1052.24 96.4916 1059.8 100.121C1075.85 107.827 1088.95 125.003 1099.83 152.631C1109.36 176.825 1115.98 205.507 1122.37 233.245C1133.18 280.077 1143.38 324.312 1165.35 331.061C1175.88 334.298 1188.58 328.943 1204.19 314.692C1228.57 292.416 1249.86 282.317 1269.26 283.81C1281.43 284.748 1293.18 290.334 1305.18 300.886C1315.82 310.239 1325.7 322.574 1335.25 334.504C1357.5 362.287 1380.52 391.014 1415.2 385.34C1434.07 382.251 1446.33 383.392 1453.76 388.931C1461.77 394.897 1462.99 405.188 1464.29 416.083C1466.55 435.018 1469.11 456.48 1507.73 462.797L1507.44 464.566C1489.65 461.656 1477.68 455.322 1470.86 445.201C1464.89 436.345 1463.67 426.151 1462.5 416.293C1461.19 405.334 1460.06 395.869 1452.67 390.364C1445.76 385.212 1433.6 384.147 1415.5 387.109C1412.37 387.621 1409.34 387.864 1406.39 387.864C1375.68 387.865 1354.44 361.343 1333.84 335.619C1314.07 310.937 1295.4 287.623 1269.12 285.598C1250.24 284.142 1229.41 294.092 1205.41 316.01C1192.39 327.903 1181.22 333.767 1171.5 333.768C1169.19 333.768 1166.96 333.436 1164.81 332.774C1154.26 329.534 1145.79 318.602 1138.16 298.372C1131.43 280.549 1126.17 257.765 1120.61 233.645C1114.23 205.971 1107.63 177.354 1098.15 153.283C1087.44 126.096 1074.64 109.235 1059.01 101.735C1043.79 94.4268 1025.98 95.778 1004.57 105.865C856.898 175.418 745.159 234.985 618.889 311.469C601.606 321.938 584.288 327.14 566.505 327.141C557.607 327.141 548.594 325.839 539.406 323.243C515.176 316.397 492.924 301.71 471.405 287.507C441.409 267.71 413.076 249.01 383.958 254.985C363.218 259.241 343.683 275.769 324.236 305.515C287.153 362.237 254.444 392.74 225.584 419.652C177.868 464.147 136.66 502.575 95.7785 641.696Z" fill="#BFBFBF"/>
<path d="M72.273 640.903L70.5254 640.438C87.247 578.877 107.782 533.415 135.151 497.367C159.553 465.228 186.254 444.654 214.523 422.873C252.871 393.324 292.526 362.77 332.26 299.626C350.979 269.878 370.206 253.657 391.04 250.035C422.415 244.581 452.665 268.131 484.689 293.062C507.221 310.604 530.52 328.743 555 336.995C582.507 346.266 607.925 341.426 632.707 322.196C698.781 270.927 766.398 238.238 837.985 203.629C895.291 175.925 954.548 147.278 1017.07 107.109C1027.38 100.487 1037.03 96.3029 1045.75 94.6723C1054.04 93.1243 1061.76 93.8243 1068.71 96.754C1083.72 103.079 1095.81 119.948 1105.68 148.325C1114.34 173.248 1120.31 203.785 1126.08 233.316C1136.39 286.015 1146.12 335.792 1169.24 343.595C1179.13 346.93 1190.88 342.475 1205.17 329.975C1228.98 309.162 1249.62 299.903 1268.27 301.669C1280.16 302.794 1291.59 308.478 1303.23 319.048C1313.57 328.439 1322.82 340.312 1332.61 352.883C1355.12 381.781 1378.39 411.664 1415.36 408.47C1434.72 406.799 1447.01 408.937 1454.05 415.201C1461.81 422.108 1462.04 433.207 1462.28 444.958C1462.72 466.326 1463.21 490.545 1506.34 501.444L1505.89 503.181C1486.11 498.183 1473.29 489.921 1466.69 477.924C1460.93 467.448 1460.68 455.519 1460.47 444.994C1460.23 433.151 1460.02 422.922 1452.84 416.535C1446.29 410.707 1434.08 408.653 1415.52 410.256C1413.62 410.42 1411.75 410.5 1409.92 410.5C1375.2 410.502 1352.84 381.79 1331.18 353.978C1311.91 329.241 1293.71 305.877 1268.1 303.453C1249.97 301.738 1229.78 310.852 1206.37 331.319C1191.55 344.282 1179.21 348.853 1168.66 345.292C1144.54 337.153 1134.71 286.881 1124.31 233.657C1118.55 204.186 1112.59 173.712 1103.97 148.909C1094.28 121.039 1082.51 104.518 1068 98.4028C1054.17 92.5713 1037.83 95.9102 1018.05 108.612C955.44 148.84 896.134 177.512 838.779 205.239C767.28 239.805 699.746 272.454 633.823 323.606C620.276 334.118 606.882 340.301 592.873 342.509C580.437 344.47 567.858 343.221 554.417 338.691C529.645 330.34 506.223 312.105 483.571 294.471C451.874 269.793 421.935 246.485 391.354 251.799C371.055 255.328 352.227 271.282 333.795 300.573C293.891 363.987 254.107 394.641 215.633 424.286C160.662 466.645 108.739 506.653 72.273 640.903Z" fill="#CFCFCF"/>
<path d="M48.7801 640.112L47.0234 639.681C80.0943 507.278 141.042 467.37 205.569 425.119C252.167 394.606 300.352 363.055 341.817 294.712C359.693 265.248 378.333 249.444 398.803 246.397C413.625 244.191 429.785 248.764 448.204 260.378C464.576 270.701 480.632 284.977 497.632 300.092C521.236 321.078 545.642 342.779 570.555 352.505C598.432 363.388 623.599 357.485 647.496 334.46C705.958 278.13 770.444 249.726 838.715 219.654C901.858 191.841 967.151 163.081 1030.37 109.986C1039.93 101.961 1048.85 96.5494 1056.88 93.9029C1064.55 91.3744 1071.68 91.2754 1078.07 93.6088C1108.66 104.781 1119.35 169.72 1129.69 232.521C1134.61 262.433 1139.26 290.685 1145.89 313.319C1153.23 338.362 1162.08 352.473 1172.94 356.458C1182.2 359.857 1193.07 356.193 1206.18 345.261C1229.39 325.897 1249.38 317.468 1267.31 319.495C1293.01 322.402 1310.95 346.081 1329.93 371.151C1352.68 401.192 1376.22 432.266 1415.53 431.609C1435.34 431.279 1447.7 434.378 1454.42 441.347C1462.01 449.219 1461.26 461.145 1460.46 473.773C1458.97 497.54 1457.28 524.477 1504.95 540.094L1504.38 541.796C1482.59 534.659 1468.93 524.449 1462.61 510.584C1457.1 498.494 1457.93 485.301 1458.66 473.662C1459.46 460.906 1460.15 449.89 1453.11 442.586C1446.85 436.093 1434.57 433.089 1415.56 433.402C1415.16 433.409 1414.75 433.412 1414.35 433.412C1396.79 433.412 1380.75 427.128 1365.35 414.225C1351.49 402.606 1339.79 387.163 1328.48 372.227C1309.74 347.476 1292.03 324.096 1267.11 321.277C1249.7 319.309 1230.15 327.603 1207.34 346.632C1197.04 355.227 1187.98 359.479 1179.89 359.48C1177.27 359.48 1174.74 359.032 1172.31 358.14C1147 348.851 1137.72 292.485 1127.9 232.809C1117.65 170.516 1107.05 106.101 1077.44 95.291C1064.89 90.7071 1049.87 95.9613 1031.54 111.354C968.123 164.615 902.71 193.429 839.45 221.293C771.33 251.298 706.988 279.639 648.757 335.745C635.67 348.355 622.543 355.805 608.628 358.522C596.248 360.938 583.576 359.516 569.891 354.173C544.675 344.329 520.145 322.519 496.423 301.427C479.481 286.363 463.478 272.134 447.232 261.891C428.947 250.361 413.644 246.001 399.071 248.17C379.169 251.133 360.948 266.659 343.367 295.636C301.691 364.328 253.333 395.992 206.566 426.615C142.343 468.667 81.6812 508.389 48.7801 640.112Z" fill="#DFDFDF"/>
<path d="M25.2763 639.318L23.5117 638.922C30.7061 607.408 40.3198 580.388 52.9025 556.32C64.1606 534.784 77.585 516.07 93.9426 499.107C124.383 467.54 159.559 447.53 196.801 426.345C251.782 395.068 308.636 362.726 351.364 289.795C368.519 260.513 386.65 245.016 406.792 242.419C422.31 240.417 439.332 246.229 458.834 260.182C476.137 272.563 493.864 290.15 511.008 307.159C544.874 340.758 579.892 375.507 614.695 374.076C631.594 373.384 647.162 364.436 662.287 346.72C686.606 318.237 715.612 294.712 750.963 274.799C782.558 257.001 816.546 243.481 849.414 230.407C915.448 204.139 983.73 176.978 1043.68 112.867C1061.24 94.0852 1075.65 86.792 1087.72 90.5727C1094.41 92.6684 1100.17 98.0757 1105.33 107.104C1109.85 115.032 1113.83 125.623 1117.47 139.482C1124.21 165.137 1128.78 198.47 1133.21 230.705C1141.89 294.012 1150.87 359.475 1176.43 369.604C1185.1 373.037 1195.15 370.074 1207.17 360.543C1229.78 342.611 1249.13 335 1266.34 337.28C1291.35 340.592 1308.76 364.251 1327.2 389.299C1350.17 420.509 1373.92 452.781 1415.69 454.748C1435.94 455.702 1448.38 459.718 1454.85 467.389C1462.32 476.258 1460.6 489.037 1458.79 502.565C1455.29 528.691 1451.32 558.301 1503.53 578.741L1502.86 580.409C1479.07 571.093 1464.58 558.924 1458.58 543.206C1453.35 529.513 1455.29 515.071 1457 502.329C1458.83 488.632 1460.42 476.803 1453.46 468.538C1447.43 461.38 1435.04 457.454 1415.6 456.539C1396.52 455.64 1379.34 448.319 1363.09 434.157C1348.82 421.717 1337.09 405.774 1325.74 390.356C1307.54 365.626 1290.35 342.267 1266.1 339.057C1249.41 336.848 1230.5 344.332 1208.3 361.942C1199.16 369.191 1191.04 372.782 1183.7 372.782C1180.95 372.782 1178.31 372.277 1175.76 371.268C1169.3 368.706 1163.72 362.984 1158.71 353.775C1154.31 345.679 1150.44 335.024 1146.88 321.204C1140.28 295.616 1135.77 262.74 1131.41 230.946C1122.62 166.831 1113.52 100.533 1087.18 92.2825C1081.78 90.5914 1075.66 91.3982 1068.99 94.6808C1061.81 98.2202 1053.74 104.749 1045.01 114.086C984.781 178.492 916.307 205.73 850.088 232.071C781.915 259.189 717.523 284.804 663.669 347.879C648.198 365.999 632.203 375.154 614.77 375.868C614.053 375.897 613.331 375.911 612.614 375.912C577.748 375.915 543.183 341.617 509.728 308.427C492.635 291.468 474.96 273.933 457.775 261.637C438.664 247.963 422.063 242.258 407.026 244.197C387.479 246.717 369.783 261.927 352.929 290.696C309.957 364.043 252.89 396.506 197.702 427.9C124.321 469.643 55.0112 509.07 25.2763 639.318Z" fill="#EFEFEF"/>
<path d="M1.77255 638.529L0 638.168C6.48657 606.86 16.051 580.003 29.2395 556.062C41.03 534.658 55.4927 516.055 73.4538 499.189C106.851 467.826 146.267 448.01 187.997 427.031C251.502 395.104 317.168 362.091 360.912 284.882C377.444 255.703 395.129 240.428 414.978 238.184C423.683 237.2 432.618 238.705 442.295 242.786C450.863 246.398 459.823 251.966 469.687 259.805C487.947 274.317 506.634 294.649 524.706 314.31C542.402 333.563 560.701 353.472 578.557 367.872C598.46 383.922 615.673 391.263 631.176 390.311C647.767 389.293 662.785 379.046 677.09 358.985C689.268 341.905 702.614 327.127 717.89 313.809C731.518 301.928 746.396 291.479 763.372 281.864C794.909 264.002 829.319 251.729 862.598 239.859C930.787 215.536 1001.3 190.386 1057 115.753C1073.34 93.8662 1086.6 84.6473 1097.55 87.5649C1121.64 93.9874 1128.95 158.932 1136.69 227.689C1140.65 262.83 1144.74 299.169 1151.21 327.82C1158.45 359.864 1167.79 377.915 1179.74 383.004C1187.84 386.451 1197.14 384.104 1208.16 375.828C1230.17 359.31 1248.88 352.507 1265.38 355.028C1289.69 358.744 1306.57 382.346 1324.43 407.333C1346.51 438.225 1371.55 473.239 1415.84 477.894C1436.54 480.07 1449.09 484.984 1455.34 493.358C1462.73 503.26 1460.06 516.914 1457.23 531.369C1454.57 544.99 1451.55 560.428 1456.33 575.274C1461.82 592.312 1476.79 606.089 1502.1 617.392L1501.36 619.026C1475.55 607.503 1460.26 593.37 1454.61 575.819C1449.68 560.537 1452.75 544.86 1455.46 531.029C1458.33 516.36 1460.81 503.693 1453.89 494.425C1448.04 486.591 1435.53 481.768 1415.65 479.678C1370.54 474.937 1345.26 439.572 1322.95 408.37C1305.32 383.701 1288.66 360.401 1265.1 356.8C1249.11 354.356 1230.85 361.048 1209.26 377.257C1197.83 385.837 1187.66 388.324 1179.03 384.652C1151.21 372.813 1142.92 299.138 1134.89 227.888C1131.01 193.373 1127.34 160.771 1121.62 135.234C1115.31 107.043 1107.28 92.0158 1097.08 89.2969C1092.27 88.0139 1086.74 89.468 1080.65 93.6205C1074.06 98.1206 1066.59 105.926 1058.46 116.82C1002.43 191.889 931.653 217.133 863.21 241.547C794.128 266.187 728.877 289.462 678.568 360.02C663.926 380.554 648.461 391.048 631.288 392.102C630.363 392.158 629.431 392.187 628.495 392.187C613.258 392.187 596.514 384.665 577.415 369.263C559.455 354.779 541.11 334.82 523.369 315.518C505.344 295.907 486.705 275.629 468.556 261.205C448.34 245.138 430.882 238.19 415.184 239.966C395.953 242.14 378.717 257.119 362.49 285.76C318.477 363.444 252.561 396.582 188.816 428.63C106.407 470.06 28.5689 509.193 1.77255 638.529Z" fill="white"/>
</g>
</svg>
