<svg width="16" height="16" viewBox="0 0 16 16" fill="none" xmlns="http://www.w3.org/2000/svg">
<path d="M11.596 10.204V5.799C11.596 5.615 11.512 5.48767 11.344 5.417C11.176 5.34633 11.0263 5.377 10.895 5.509L8.964 7.441C8.806 7.59833 8.727 7.78467 8.727 8C8.727 8.21533 8.80767 8.404 8.969 8.566L10.896 10.492C11.0267 10.6233 11.176 10.6553 11.344 10.588C11.512 10.5207 11.596 10.3927 11.596 10.204ZM1.616 16C1.17133 16 0.791 15.8417 0.475 15.525C0.159 15.2083 0.000666667 14.8287 0 14.386V1.615C0 1.171 0.158333 0.791 0.475 0.475C0.791667 0.159 1.17167 0.000666667 1.615 0H14.385C14.829 0 15.209 0.158333 15.525 0.475C15.841 0.791667 15.9993 1.17167 16 1.615V14.385C16 14.829 15.8417 15.209 15.525 15.525C15.2083 15.841 14.8283 15.9993 14.385 16H1.616ZM5 15H14.385C14.5383 15 14.6793 14.936 14.808 14.808C14.9367 14.68 15.0007 14.5387 15 14.384V1.616C15 1.462 14.936 1.32067 14.808 1.192C14.68 1.06333 14.5387 0.999333 14.384 1H5V15Z" fill="#B4CFC1"/>
</svg>
