<svg width="16" height="16" viewBox="0 0 16 16" fill="none" xmlns="http://www.w3.org/2000/svg">
<path d="M4.57599 11.5699L5.98479 11.1635L14.4672 2.57999C14.5341 2.51143 14.5713 2.4193 14.5709 2.32351C14.5704 2.22772 14.5323 2.13594 14.4648 2.06802L13.9568 1.55445C13.924 1.52072 13.8847 1.49386 13.8414 1.47546C13.7981 1.45705 13.7515 1.44745 13.7045 1.44723C13.6574 1.447 13.6108 1.45616 13.5673 1.47415C13.5238 1.49215 13.4843 1.51863 13.4512 1.55205L4.99119 10.1131L4.57599 11.5699ZM14.9624 0.536905L15.4704 1.05128C16.1712 1.76083 16.1776 2.90557 15.4832 3.60793L6.74239 12.4538L3.73119 13.321C3.64016 13.3465 3.54498 13.354 3.45109 13.3428C3.35719 13.3316 3.26642 13.302 3.18396 13.2557C3.1015 13.2094 3.02897 13.1473 2.9705 13.073C2.91203 12.9987 2.86877 12.9136 2.8432 12.8226C2.80396 12.6906 2.80341 12.5501 2.8416 12.4178L3.71759 9.34599L12.4352 0.523306C12.6009 0.356402 12.7983 0.224173 13.0157 0.13433C13.2331 0.0444882 13.4662 -0.00116866 13.7015 2.2729e-05C13.9367 0.00121412 14.1693 0.0492299 14.3858 0.14127C14.6023 0.233309 14.7983 0.368331 14.9624 0.536905ZM5.74719 1.45925C6.14399 1.45925 6.46559 1.78483 6.46559 2.18641C6.46622 2.28134 6.44814 2.37546 6.41236 2.46339C6.37659 2.55133 6.32384 2.63135 6.25712 2.69888C6.1904 2.76642 6.11102 2.82014 6.02352 2.85698C5.93603 2.89381 5.84213 2.91304 5.74719 2.91357H2.8736C2.08 2.91357 1.4368 3.56473 1.4368 4.36708V13.0914C1.4368 13.8945 2.08 14.5457 2.8736 14.5457H11.4944C12.288 14.5457 12.932 13.8945 12.932 13.0914V10.1835C12.932 9.78196 13.2536 9.45638 13.6504 9.45638C14.0472 9.45638 14.3688 9.78196 14.3688 10.1843V13.0914C14.3688 14.6977 13.0816 16 11.4944 16H2.8736C1.2864 16 0 14.6977 0 13.0914V4.36708C0 2.76157 1.2864 1.45925 2.8736 1.45925H5.74719Z" fill="white"/>
</svg>
